<svg xmlns="http://www.w3.org/2000/svg" viewBox="0 0 750 1200"><path fill="url(#prefix__a)" d="M0 0h750v1500H0z"/><linearGradient id="prefix__b" gradientUnits="userSpaceOnUse" x1="375" y1="-94" x2="375" y2="656"><stop offset=".151" stop-color="#08133f"/><stop offset=".756" stop-color="#283d8a"/></linearGradient><path fill="url(#prefix__b)" d="M0 0h750v500H0z"/><g><linearGradient id="prefix__c" gradientUnits="userSpaceOnUse" x1="365.688" y1="215.665" x2="388.416" y2="637.13"><stop offset="0" stop-color="#06152d"/><stop offset="1" stop-color="#3b2fe0"/></linearGradient><path d="M0 332.161s96.178-19.318 113.03-19.318 42.896-24.512 42.896-24.512h16.852l27.576-13.788s14.713 3.485 20.841 3.485c6.128 0 15.321-.511 20.428 1.021 0 0 14.299 16.853 26.556 24.514 0 0 14.3 4.086 22.981 5.107 0 0 25.535 12.767 48.516 11.746 0 0 304.096 42.388 410.322 35.238v71.498L0 421.023v-88.862z" fill="url(#prefix__c)"/><path d="M202.16 279.982s2.676 14.908 3.058 16.055-3.058 8.41-3.058 8.41l-23.318-14.908 23.318-9.557zM172.726 290.685l9.556 7.645-1.911 2.294 2.676 2.676 1.529 5.734s-3.823-.764-4.969-1.911c-1.147-1.147-5.734-5.352-5.734-5.352h-9.556l-26.376 8.792 17.966-20.642 10.703 5.352 6.116-4.588zM139.087 317.825l23.7-5.351 14.908 2.293 10.321 5.734 18.731.382 17.966 18.731-21.406-.765-11.086-4.969-1.911 3.44 35.168 18.731-102.446-38.99zM241.624 279.049l-2.767 8.96 4.969 6.881-2.293 4.205 5.351 6.116 5.352 2.676h8.027l-6.498-4.588-4.587-4.204 19.003 4.467z" fill="#261a76"/><g><linearGradient id="prefix__d" gradientUnits="userSpaceOnUse" x1="441.732" y1="232.954" x2="588.246" y2="478.828"><stop offset=".104" stop-color="#fcffd6"/><stop offset=".117" stop-color="#1f4d9d"/><stop offset=".163" stop-color="#1f4d9d"/><stop offset=".215" stop-color="#1f4d9d"/><stop offset=".272" stop-color="#2d45bf"/><stop offset=".337" stop-color="#2062be"/><stop offset=".412" stop-color="#265eab"/><stop offset=".505" stop-color="#1f4d9d"/><stop offset=".636" stop-color="#2351ba"/><stop offset="1" stop-color="#0e4461"/></linearGradient><path d="M750 334.39v106.316s-533.39-43.438-458.6-60.167c145.158-32.478 230.976-83.838 300.7-84.712 13.729-.183 26.834 1.606 39.65 5.874C727.538 333.63 750 334.39 750 334.39z" fill="url(#prefix__d)"/><linearGradient id="prefix__e" gradientUnits="userSpaceOnUse" x1="659.085" y1="339.232" x2="702.118" y2="296.021"><stop offset="0" stop-color="#08133f"/><stop offset="1" stop-color="#0e4461"/></linearGradient><path d="M750 334.39v24.219c-15.729 1.731-17.482 2.173-48.065-.183-86.76-6.672-106.201-50.985-109.835-62.599 13.729-.183 26.834 1.606 39.65 5.874C727.538 333.63 750 334.39 750 334.39z" fill="url(#prefix__e)"/><g><path d="M35.24 274.68s2.945 19.056 2.425 33.261l6.756-1.213s-4.158-26.678-6.236-31.875c0 0 4.158-.693 8.662 2.079l-1.386-2.599s4.677.346 8.142 5.717l-.52-3.118s5.024 1.386 9.181 8.662c0 0 0-7.276-4.331-12.473-4.331-5.197-18.71-2.079-19.922-1.213 0 0 1.732-3.465 7.276-5.37l-3.638-.52s2.079-4.331 12.473-3.118l-2.945-1.906s9.181-2.772 15.418 3.638c0 0-5.89-9.874-15.418-12.127-9.528-2.252-15.072 15.418-15.072 15.418s-6.93-10.221-13.339-10.567c-6.41-.347-12.473 10.221-12.473 10.221s3.985-2.945 7.449-3.465l-1.039 3.118s3.984-2.772 9.355-1.906l-3.118 2.079s5.544-.693 10.394 5.024c0 0-10.914 1.213-14.552 6.237s.173 11.607.173 11.607 1.039-5.717 2.425-7.622l.347 4.504s1.906-5.197 5.024-7.276l.52 3.811s3.985-8.142 7.969-9.008z" fill="#08133f"/><linearGradient id="prefix__a" gradientUnits="userSpaceOnUse" x1="203.519" y1="172.591" x2="457.607" y2="579.19"><stop offset="0" stop-color="#3515a9"/><stop offset=".01" stop-color="#1f4d9d"/><stop offset=".046" stop-color="#1f4d9d"/><stop offset=".086" stop-color="#1f4d9d"/><stop offset=".131" stop-color="#1f4d9d"/><stop offset=".181" stop-color="#2062be"/><stop offset=".24" stop-color="#265eab"/><stop offset=".313" stop-color="#1f4d9d"/><stop offset=".415" stop-color="#2351ba"/><stop offset=".699" stop-color="#0e4461"/><stop offset=".979" stop-color="#08133f"/></linearGradient><path d="M750 394v106H0V322.249s33.333-19.915 56.443-31.307c1.615-.796 3.693-.366 5.757-.24 41.02 2.49 138.347 83.688 370.948 108.165 103.703 10.908 180.102 10.394 233.69 6.179C739.475 399.358 750 394 750 394z" fill="url(#prefix__a)"/><linearGradient id="prefix__f" gradientUnits="userSpaceOnUse" x1="61.263" y1="362.591" x2="666.838" y2="362.591"><stop offset="0" stop-color="#08133f"/><stop offset="1" stop-color="#0e4461"/></linearGradient><path d="M666.838 405.046c-47.454 9.594-290.823 54.905-451.681 9.72C51.477 368.782 59.631 301.769 62.199 290.702c41.02 2.49 138.347 83.688 370.948 108.165 103.704 10.908 180.102 10.394 233.691 6.179z" fill="url(#prefix__f)"/><path d="M463.284 371.592c-.465-1.084-2.169-2.788-4.957-2.478-2.788.31-3.408-1.394-5.421-1.704-2.014-.31-3.253-.775-3.717-.775-.465 0-2.788-1.549-3.253-.62-.465.929 1.394 1.549.465 3.717-.929 2.169-4.647 4.492-5.421 9.913-.775 5.421-8.365 7.745-12.857 5.886-4.492-1.859-5.267-5.731-8.21-5.731-2.943 0-7.125-8.984-13.166-8.055-6.041.929-5.886 5.112-9.449 7.59-3.563 2.478-6.196 4.337-6.196 4.337-.408-.272-2.609 1.847-3.453 3.416-1.445.41-4.859 1.695-6.306 4.949-1.859 4.182-7.59 5.886-9.139 5.731-1.549-.155.465 4.802 4.647 2.788 1.863-.897 3.91-1.886 5.608-2.707.426 1.229 1.402 2.349 2.992 3.177.003 1.218-.343 2.77-1.562 4.489-2.869 4.042-2.347 7.563-1.173 11.344 1.173 3.781.913 10.431 1.434 11.866.522 1.434 1.043 3.129.913 3.521-.13.391.261 1.826 1.304 1.956 1.043.13 4.564.13 4.564.13s.522-1.956-1.173-2.869c-1.695-.913-1.695-1.043-1.826-2.608-.13-1.565-2.086-9.388-1.826-10.823.261-1.434 1.434-2.217 3.651-5.737 0 0-.782 4.303-1.434 5.607-.652 1.304.782 3.781 1.956 6.259 1.173 2.478 3.781 6.259 3.781 7.824 0 1.565 2.086 2.217 2.086 2.217s2.999.13 3.781.261c.782.13 2.608-.13 1.956-.652-.652-.522-.782-1.956-2.347-2.738s-2.608-1.956-2.608-2.478-4.173-9.128-4.173-10.171 2.738-4.825 4.955-6.65c2.099-1.729 5.596-5.792 6.294-8.212 3.505.156 6.974.236 9.862.246-.16 1.967-.318 4.608-.248 6.793.13 4.042-2.999 10.301-2.347 14.213.652 3.912-.13 6.259 1.434 7.302 1.565 1.043 3.651 1.043 3.912.522.261-.522-1.173-5.085-1.173-7.302 0-2.217-.913-5.216.652-9.388 1.565-4.173 1.956-8.997 1.956-10.562 0-.446-.075-1.072-.181-1.739.193-.018.385-.037.576-.058 1.49 2.714 3.853 6.214 7.167 8.838 6.259 4.955 4.564 11.866 4.173 12.779-.391.913-1.434 7.172-.652 8.085.782.913 1.304 1.826 3.781 1.956 2.478.13 1.565-1.826.782-4.042-.782-2.217-.13-15.126-.652-16.56-.521-1.434-4.955-4.303-5.998-6.52-.563-1.196-1.166-3.565-2.05-5.783 3.443-.934 5.936-2.059 6.685-2.558 1.394-.929 11.307-2.324 14.251-6.351 2.943-4.027 3.253-11.772 4.027-14.251.775-2.478 3.408-4.337 4.492-4.337s2.168 0 3.717-.155 2.323.62 3.717.929c1.394.31 2.323-.465 2.323-1.704s-.461-1.239-.926-2.323z" fill="#05020d"/><g fill="#08133f"><path d="M519.617 342.525s4.343 66.929 3.703 84.414l9.604-1.338s-7.123-76.466-9.682-82.863c0 0 5.118-.853 10.662 2.559l-1.706-3.199s5.757.427 10.022 7.037l-.64-3.838s6.184 1.706 11.302 10.662c0 0 0-8.956-5.331-15.353s-23.029-2.559-24.522-1.493c0 0 2.132-4.265 8.956-6.61l-4.478-.64s2.559-5.331 15.353-3.838l-3.625-2.346s11.301-3.412 18.978 4.478c0 0-7.25-12.155-18.978-14.927-11.728-2.772-18.552 18.978-18.552 18.978s-8.529-12.581-16.419-13.007c-7.89-.426-15.353 12.581-15.353 12.581s4.904-3.625 9.169-4.265l-1.279 3.838s4.904-3.412 11.515-2.346l-3.838 2.559s6.824-.853 12.794 6.184c0 0-13.434 1.493-17.912 7.677-4.478 6.184.213 14.287.213 14.287s1.279-7.037 2.985-9.382l.427 5.544s2.346-6.397 6.184-8.956l.64 4.691c-.001 0 4.903-10.022 9.808-11.088z"/><path d="M528.48 407.444s4.778 1.72 7.645 8.983c0 0-.382-8.792-4.778-14.717 0 0 5.352 3.058 6.498 9.939l.765-15.29s3.823 8.027 2.102 16.055c0 0 8.601-11.659 14.144-12.806 0 0-8.41 9.556-11.277 15.864 0 0 4.969-4.778 14.144-5.925 0 0-10.894 5.925-11.85 9.365 0 0 6.498-2.102 12.041-1.338 0 0-10.512 3.823-12.997 6.881l-11.946 1.242s-2.198-6.594-5.638-8.696c0 0 5.16 1.147 6.307 3.44 1.147 2.294.382.765.382.765s-4.204-11.469-5.542-13.762z"/></g><path d="M675.416 362.181s-2.294 12.232 1.147 17.584c3.44 5.352 14.144 4.205 15.29 5.352 1.147 1.147.764 20.26.764 20.26h9.174l1.147-32.492s8.41-1.147 11.85-4.587c3.44-3.44 8.027-20.26 4.587-21.024-3.44-.764-6.116 15.673-8.792 16.819-2.676 1.147-9.556.765-9.556.765s3.44-33.639-.765-34.403C696.058 329.689 693 379 693 379s-10.703 1.147-11.85-4.205c-1.147-5.352-1.147-11.086-2.676-12.997-1.529-1.911-3.058.383-3.058.383z" fill="#08133f"/></g></g><g><g fill="#dadfc8"><circle transform="rotate(-76.909 97.294 206.318)" cx="97.291" cy="206.315" opacity=".59" r="37.504"/><circle transform="rotate(-76.903 97.296 206.314)" cx="97.291" cy="206.315" opacity=".59" r="33.504"/></g><path d="M565.581 170.594H750v-30.261s-19.667-.667-30.667 13.333c0 0-11-5.333-23-2.333s-16 7.333-16 7.333-9.667-5.667-20-1.667-3.667 6.667-18 6.667-17.333 0-22 1c-4.667 1-66 4.333-66 4.333s-11.505.856 11.248 1.595z" fill="#384db4"/><path d="M352.335 212.336h168.667s-20-4-33.333-4c-13.333 0-18-8.667-28.667-8.667-10.667 0-2 8.667-14 2s-24.667-10.667-34-8.667c-9.333 2-6 12-14 10.667-8-1.333-20.667-10-25.333-6-4.667 4-4.667 9.333-12 7.333s-17.333 0-18.667 2c-1.333 2-35.333 3.333-28.667 4.667 6.666 1.333 40 .667 40 .667z" opacity=".41" fill="#0b5250"/><path d="M0 128.333h199.333s-12.667-5.333-28-4.667C156 124.333 150.667 115 141.667 113S126 116 126 116s-16.333-14-27-15.333C88.333 99.333 82 105 82 105S70.333 91 48.333 87.333C26.333 83.667 12 103.667 12 103.667s-10.667 2-12 4.667c0-.001-.5 20.499 0 19.999zM406 52h297s-38-10-62-10-20-14-40-14-6.5 9-33-3.5-40-1.5-49.5 4-30.5-9-47.5-4.5-15 13.5-27 13.5-21.5-3.5-28 1-2 3.5-24.5 6.5-34 5-34 5 1 4 48.5 2z" fill="#dcd8b9"/><path d="M112.667 270.333h128s-13-3-23.333-4.333c-10.333-1.333-12.667-9.333-19-9-6.333.333-6 1.667-13.667-2.667-7.667-4.333-14.333-1.333-16 1C167 257.667 158 254 152 255.333c-6 1.333-2.333 7.667-10.333 6.333-8-1.333-12-1-15.667 1s-12.667 4-20.333 4.667c-7.667.667-15.667 3 7 3zM518.499 267.003h99.5s-10.5-1-25-5.5-17-9.5-21-9-8.5 5.5-12 4-10.5-1.5-14.5.5-13.5 4-18.5 3-6-2-8 .5-13 6-15 6 8.5 1 14.5.5z" opacity=".41" fill="#efd9ad"/><g fill="#dadfc8"><path d="M162.813 59.112a1.25 1.25 0 112.466-.416 1.25 1.25 0 01-2.466.416zM143.537 30.548a1.75 1.75 0 113.45-.583 1.75 1.75 0 01-3.45.583zM133.401 66.614a1 1 0 111.974-.331 1 1 0 01-1.974.331zM113.591 47.648a1 1 0 111.974-.333 1 1 0 01-1.974.333zM180.249 15.981a1 1 0 111.972-.333 1 1 0 01-1.972.333zM136.735 49.571a1 1 0 111.973-.334 1 1 0 01-1.973.334zM123.713 24.261a1 1 0 111.972-.333 1 1 0 01-1.972.333zM177.838 41.489a1 1 0 111.972-.333 1 1 0 01-1.972.333zM56.794 67.888a1.25 1.25 0 112.466-.416 1.25 1.25 0 01-2.466.416zM37.518 39.324a1.75 1.75 0 113.45-.583 1.75 1.75 0 01-3.45.583zM27.382 75.39a.999.999 0 111.972-.333 1 1 0 11-1.972.333zM7.573 56.424a1 1 0 111.972-.333 1 1 0 01-1.972.333zM74.23 24.757a1 1 0 111.973-.334 1 1 0 01-1.973.334zM30.716 58.347a1 1 0 111.973-.334 1 1 0 01-1.973.334zM17.695 33.037a1 1 0 111.973-.334 1 1 0 01-1.973.334zM71.819 50.265a1 1 0 111.972-.333 1 1 0 01-1.972.333zM110.918 85.116a1.25 1.25 0 112.466-.416 1.25 1.25 0 01-2.466.416zM91.643 56.552a1.75 1.75 0 113.45-.583 1.75 1.75 0 01-3.45.583zM81.507 92.618a1 1 0 111.972-.332 1 1 0 01-1.972.332zM61.697 73.652a1 1 0 111.973-.334 1 1 0 01-1.973.334zM128.355 41.985a1 1 0 111.972-.333 1 1 0 01-1.972.333zM84.84 75.575a.999.999 0 111.972-.333 1 1 0 11-1.972.333z"/><path d="M71.819 50.265a1 1 0 111.972-.333 1 1 0 01-1.972.333zM125.943 67.493a.999.999 0 111.153.82 1.002 1.002 0 01-1.153-.82z"/><g><path d="M165.042 102.344a1.25 1.25 0 112.466-.416 1.25 1.25 0 01-2.466.416zM145.767 73.78a1.75 1.75 0 113.45-.583 1.75 1.75 0 01-3.45.583zM135.631 109.846a1 1 0 111.972-.333 1 1 0 01-1.972.333zM115.821 90.88a1 1 0 111.972-.333 1 1 0 01-1.972.333zM182.479 59.213a1 1 0 111.972-.333 1 1 0 01-1.972.333zM138.965 92.803a1 1 0 111.972-.333 1 1 0 01-1.972.333zM125.943 67.493a.999.999 0 111.153.82 1.002 1.002 0 01-1.153-.82zM180.068 84.721a1 1 0 111.972-.333 1 1 0 01-1.972.333z"/></g><g><path d="M219.167 119.572a1.25 1.25 0 112.466-.416 1.25 1.25 0 01-2.466.416zM199.891 91.008a1.75 1.75 0 113.45-.583 1.75 1.75 0 01-3.45.583zM189.755 127.074a1 1 0 111.972-.333 1 1 0 01-1.972.333zM169.946 108.108a1 1 0 111.973-.334 1 1 0 01-1.973.334zM236.603 76.441a1 1 0 111.974-.331 1 1 0 01-1.974.331zM193.089 110.031a1 1 0 111.973-.333 1 1 0 11-1.973.333zM180.068 84.721a1 1 0 111.972-.333 1 1 0 01-1.972.333zM234.192 101.949a1 1 0 111.97-.333 1 1 0 01-1.97.333z"/></g><g><path d="M273.291 136.8a1.25 1.25 0 112.466-.416 1.25 1.25 0 01-2.466.416zM254.016 108.236a1.75 1.75 0 113.45-.583 1.75 1.75 0 01-3.45.583zM243.88 144.302a1 1 0 111.972-.333 1 1 0 01-1.972.333zM224.07 125.336a.999.999 0 111.972-.333 1 1 0 11-1.972.333zM290.728 93.669a1 1 0 111.972-.332 1 1 0 01-1.972.332zM247.214 127.259a1 1 0 111.972-.333 1 1 0 01-1.972.333zM234.192 101.949a1 1 0 111.97-.333 1 1 0 01-1.97.333zM288.316 119.177a1 1 0 111.973-.334 1 1 0 01-1.973.334z"/></g><g><path d="M351.395 60.305a1.25 1.25 0 112.466-.416 1.25 1.25 0 01-2.466.416zM332.12 31.741a1.75 1.75 0 113.45-.583 1.75 1.75 0 01-3.45.583zM321.984 67.807a1 1 0 111.973-.333 1 1 0 01-1.973.333zM302.174 48.841a1 1 0 111.97-.333 1 1 0 01-1.97.333zM368.832 17.174a1 1 0 111.972-.333 1 1 0 01-1.972.333zM325.318 50.764a1 1 0 111.973-.334 1 1 0 01-1.973.334zM312.296 25.454a1 1 0 111.973-.334 1 1 0 01-1.973.334zM366.421 42.682a1 1 0 111.973-.334 1 1 0 01-1.973.334z"/></g><g><path d="M245.377 69.081a1.25 1.25 0 112.466-.416 1.25 1.25 0 01-2.466.416zM226.101 40.517a1.75 1.75 0 113.45-.583 1.75 1.75 0 01-3.45.583zM215.965 76.583a1 1 0 111.974-.331 1 1 0 01-1.974.331zM196.156 57.617a1 1 0 111.972-.333 1 1 0 01-1.972.333zM262.813 25.95a1 1 0 111.972-.333 1 1 0 01-1.972.333zM219.299 59.54a1 1 0 111.972-.333 1 1 0 01-1.972.333zM206.277 34.23a1 1 0 111.972-.333 1 1 0 01-1.972.333zM260.402 51.458a1 1 0 111.972-.333 1 1 0 01-1.972.333z"/></g><g><path d="M299.501 86.309a1.25 1.25 0 112.466-.416 1.25 1.25 0 01-2.466.416zM280.225 57.745a1.75 1.75 0 113.45-.583 1.75 1.75 0 01-3.45.583zM270.09 93.811a1 1 0 111.972-.332 1 1 0 11-1.972.332zM250.28 74.845a1 1 0 111.973-.334 1 1 0 01-1.973.334zM316.938 43.178a1 1 0 111.973-.334 1 1 0 01-1.973.334zM273.423 76.768a1 1 0 111.972-.333 1 1 0 01-1.972.333zM260.402 51.458a1 1 0 111.972-.333 1 1 0 01-1.972.333zM314.526 68.686a1 1 0 111.974-.331 1 1 0 01-1.974.331z"/></g><g><path d="M353.625 103.537a1.25 1.25 0 112.466-.416 1.25 1.25 0 01-2.466.416zM334.35 74.973a1.75 1.75 0 113.45-.583 1.75 1.75 0 01-3.45.583zM324.214 111.039a1 1 0 111.973-.334 1 1 0 01-1.973.334zM304.404 92.073a1 1 0 111.973-.334 1 1 0 01-1.973.334zM371.062 60.406a1 1 0 111.973-.334 1 1 0 01-1.973.334zM327.547 93.996a1 1 0 111.972-.333 1 1 0 01-1.972.333zM314.526 68.686a1 1 0 111.974-.331 1 1 0 01-1.974.331zM368.651 85.914a1 1 0 111.973-.334 1 1 0 01-1.973.334z"/></g><g><path d="M407.75 120.765a1.25 1.25 0 112.466-.416 1.25 1.25 0 01-2.466.416zM388.474 92.201a1.75 1.75 0 113.45-.583 1.75 1.75 0 01-3.45.583zM378.338 128.267a1 1 0 111.973-.334 1 1 0 01-1.973.334zM358.529 109.301a1 1 0 111.973-.334 1 1 0 01-1.973.334zM425.186 77.634a.999.999 0 111.972-.333 1 1 0 11-1.972.333zM381.672 111.224a1 1 0 111.97-.333 1 1 0 01-1.97.333zM368.651 85.914a1 1 0 111.973-.334 1 1 0 01-1.973.334zM422.775 103.142a1 1 0 111.97-.333 1 1 0 01-1.97.333z"/></g><g><path d="M461.874 137.993a1.25 1.25 0 112.466-.416 1.25 1.25 0 01-2.466.416zM442.598 109.429a1.75 1.75 0 113.45-.583 1.75 1.75 0 01-3.45.583zM432.463 145.495a1 1 0 111.973-.334 1 1 0 01-1.973.334zM412.653 126.529a.999.999 0 111.971-.333 1 1 0 11-1.971.333zM479.31 94.862a1 1 0 111.972-.332 1 1 0 01-1.972.332zM435.796 128.452a1 1 0 111.973-.334 1 1 0 01-1.973.334zM422.775 103.142a1 1 0 111.97-.333 1 1 0 01-1.97.333zM476.899 120.37a1 1 0 111.973-.334 1 1 0 01-1.973.334z"/></g><g><path d="M546.829 62.288a1.25 1.25 0 112.466-.416 1.25 1.25 0 01-2.466.416zM527.554 33.724a1.75 1.75 0 113.45-.583 1.75 1.75 0 01-3.45.583zM517.418 69.79a1 1 0 111.972-.333 1 1 0 01-1.972.333zM497.608 50.824a1 1 0 111.973-.334 1 1 0 01-1.973.334zM564.266 19.157a1 1 0 111.972-.333 1 1 0 01-1.972.333zM520.752 52.747a1 1 0 111.973-.334 1 1 0 01-1.973.334zM507.73 27.437a1 1 0 111.972-.333 1 1 0 01-1.972.333zM561.855 44.665a1 1 0 111.973-.334 1 1 0 01-1.973.334z"/></g><g><path d="M440.811 71.064a1.25 1.25 0 112.466-.416 1.25 1.25 0 01-2.466.416zM421.535 42.5a1.75 1.75 0 113.45-.583 1.75 1.75 0 01-3.45.583zM411.399 78.566a1 1 0 111.972-.333 1 1 0 01-1.972.333zM391.59 59.6a1 1 0 111.973-.334 1 1 0 01-1.973.334zM458.247 27.933a1 1 0 111.972-.333 1 1 0 01-1.972.333zM414.733 61.523a1 1 0 111.973-.334 1 1 0 01-1.973.334zM401.712 36.213a1 1 0 111.973-.334 1 1 0 01-1.973.334zM455.836 53.441a1 1 0 111.973-.334 1 1 0 01-1.973.334z"/></g><g><path d="M494.935 88.292a1.25 1.25 0 112.466-.416 1.25 1.25 0 01-2.466.416zM475.66 59.728a1.75 1.75 0 113.45-.583 1.75 1.75 0 01-3.45.583zM465.524 95.794a1 1 0 111.972-.333 1 1 0 01-1.972.333zM445.714 76.828a1 1 0 111.973-.334 1 1 0 01-1.973.334zM512.372 45.161a1 1 0 111.972-.333 1 1 0 01-1.972.333zM468.857 78.751a.999.999 0 111.972-.333 1 1 0 11-1.972.333zM455.836 53.441a1 1 0 111.973-.334 1 1 0 01-1.973.334zM509.96 70.669a.999.999 0 111.971-.333 1 1 0 11-1.971.333z"/></g><g><path d="M549.059 105.52a1.25 1.25 0 112.466-.416 1.25 1.25 0 01-2.466.416zM529.784 76.956a1.75 1.75 0 113.45-.583 1.75 1.75 0 01-3.45.583zM519.648 113.022a1 1 0 111.972-.333 1 1 0 01-1.972.333zM499.838 94.056a.999.999 0 111.972-.333 1 1 0 11-1.972.333zM566.496 62.389a1 1 0 111.972-.333 1 1 0 01-1.972.333zM522.982 95.979a1 1 0 111.972-.333 1 1 0 01-1.972.333zM509.96 70.669a.999.999 0 111.971-.333 1 1 0 11-1.971.333zM564.085 87.897a1 1 0 111.972-.333 1 1 0 01-1.972.333z"/></g><g><path d="M603.184 122.748a1.25 1.25 0 112.466-.416 1.25 1.25 0 01-2.466.416zM583.908 94.184a1.75 1.75 0 113.45-.583 1.75 1.75 0 01-3.45.583zM573.772 130.25a.999.999 0 111.972-.332.999.999 0 11-1.972.332zM553.963 111.284a1 1 0 111.97-.333 1 1 0 01-1.97.333zM620.62 79.618a1 1 0 111.972-.333 1 1 0 01-1.972.333zM577.106 113.207a1 1 0 111.973-.334 1 1 0 01-1.973.334zM564.085 87.897a1 1 0 111.972-.333 1 1 0 01-1.972.333zM618.209 105.125a1 1 0 111.973-.334 1 1 0 01-1.973.334z"/></g><g><path d="M657.308 139.976a1.25 1.25 0 112.466-.416 1.25 1.25 0 01-2.466.416zM638.033 111.412a1.75 1.75 0 113.45-.583 1.75 1.75 0 01-3.45.583zM627.897 147.478a1 1 0 111.97-.333 1 1 0 01-1.97.333zM608.087 128.512a1 1 0 111.972-.333 1 1 0 01-1.972.333zM674.745 96.845a1 1 0 111.972-.333 1 1 0 01-1.972.333zM631.23 130.435a1 1 0 111.973-.334 1 1 0 01-1.973.334zM618.209 105.125a1 1 0 111.973-.334 1 1 0 01-1.973.334zM672.333 122.353a1 1 0 111.972-.333 1 1 0 01-1.972.333z"/></g><g><path d="M703.113 63.699a1.25 1.25 0 112.466-.416 1.25 1.25 0 01-2.466.416zM683.838 35.135a1.75 1.75 0 113.45-.583 1.75 1.75 0 01-3.45.583zM673.702 71.201a1 1 0 111.973-.334 1 1 0 01-1.973.334zM653.892 52.235a1 1 0 111.972-.333 1 1 0 01-1.972.333zM720.55 20.569a1 1 0 111.974-.333 1 1 0 01-1.974.333zM677.036 54.158a1 1 0 111.972-.333 1 1 0 01-1.972.333zM664.014 28.848a1 1 0 111.974-.333 1 1 0 01-1.974.333zM718.139 46.076a1 1 0 111.972-.333 1 1 0 01-1.972.333z"/></g><g><path d="M597.095 72.475a1.25 1.25 0 112.466-.416 1.25 1.25 0 01-2.466.416zM577.819 43.911a1.75 1.75 0 113.45-.583 1.75 1.75 0 01-3.45.583zM567.683 79.978a1 1 0 111.974-.331 1 1 0 01-1.974.331zM547.873 61.011a1 1 0 111.974-.333 1 1 0 01-1.974.333zM614.531 29.345a1 1 0 111.972-.333 1 1 0 01-1.972.333zM571.017 62.935a1 1 0 111.972-.333 1 1 0 01-1.972.333zM557.995 37.625a1 1 0 111.972-.333 1 1 0 01-1.972.333zM612.12 54.853a1 1 0 111.972-.333 1 1 0 01-1.972.333z"/></g><g><path d="M651.219 89.703a1.25 1.25 0 112.466-.416 1.25 1.25 0 01-2.466.416zM631.943 61.139a1.75 1.75 0 113.45-.583 1.75 1.75 0 01-3.45.583zM621.807 97.206a1 1 0 111.973-.333 1 1 0 11-1.973.333zM601.998 78.239a1 1 0 111.972-.333 1 1 0 01-1.972.333zM668.655 46.573a1 1 0 111.972-.333 1 1 0 01-1.972.333zM625.141 80.163a1 1 0 111.972-.333 1 1 0 01-1.972.333zM612.12 54.853a1 1 0 111.972-.333 1 1 0 01-1.972.333zM666.244 72.08a1 1 0 111.973-.334 1 1 0 01-1.973.334z"/></g><g><path d="M705.343 106.932a1.25 1.25 0 112.466-.416 1.25 1.25 0 01-2.466.416zM686.068 78.367a1.75 1.75 0 113.45-.583 1.75 1.75 0 01-3.45.583zM675.932 114.434a1 1 0 111.972-.333 1 1 0 01-1.972.333zM656.122 95.467a1 1 0 111.972-.333 1 1 0 01-1.972.333zM722.78 63.801a1 1 0 111.972-.333 1 1 0 01-1.972.333zM679.266 97.391a1 1 0 111.972-.333 1 1 0 01-1.972.333zM666.244 72.08a1 1 0 111.973-.334 1 1 0 01-1.973.334zM720.369 89.309a1 1 0 111.972-.333 1 1 0 01-1.972.333z"/></g><g><path d="M740.192 95.595a1.75 1.75 0 113.45-.583 1.75 1.75 0 01-3.45.583zM730.056 131.662a1 1 0 111.972-.333 1 1 0 01-1.972.333zM710.246 112.696a1 1 0 111.972-.333 1 1 0 01-1.972.333zM733.39 114.619a.999.999 0 111.152.82 1.001 1.001 0 01-1.152-.82zM720.369 89.309a1 1 0 111.972-.333 1 1 0 01-1.972.333z"/></g></g></g></g></svg>